<?xml version="1.0" encoding="UTF-8" standalone="no"?>
<!-- Generator: Adobe Illustrator 19.0.0, SVG Export Plug-In . SVG Version: 6.00 Build 0)  -->

<svg
   xmlns:dc="http://purl.org/dc/elements/1.1/"
   xmlns:cc="http://creativecommons.org/ns#"
   xmlns:rdf="http://www.w3.org/1999/02/22-rdf-syntax-ns#"
   xmlns:svg="http://www.w3.org/2000/svg"
   xmlns="http://www.w3.org/2000/svg"
   xmlns:sodipodi="http://sodipodi.sourceforge.net/DTD/sodipodi-0.dtd"
   xmlns:inkscape="http://www.inkscape.org/namespaces/inkscape"
   version="1.1"
   id="Layer_1"
   x="0px"
   y="0px"
   viewBox="0 0 494.49 494.49"
   style="enable-background:new 0 0 494.49 494.49;"
   xml:space="preserve"
   inkscape:version="0.91 r13725"
   sodipodi:docname="pinwheel.svg"><metadata
     id="metadata75"><rdf:RDF><cc:Work
         rdf:about=""><dc:format>image/svg+xml</dc:format><dc:type
           rdf:resource="http://purl.org/dc/dcmitype/StillImage" /></cc:Work></rdf:RDF></metadata><defs
     id="defs73" /><sodipodi:namedview
     pagecolor="#ffffff"
     bordercolor="#666666"
     borderopacity="1"
     objecttolerance="10"
     gridtolerance="10"
     guidetolerance="10"
     inkscape:pageopacity="0"
     inkscape:pageshadow="2"
     inkscape:window-width="3200"
     inkscape:window-height="1720"
     id="namedview71"
     showgrid="false"
     inkscape:zoom="1.9090376"
     inkscape:cx="606.23335"
     inkscape:cy="314.75294"
     inkscape:window-x="0"
     inkscape:window-y="24"
     inkscape:window-maximized="1"
     inkscape:current-layer="Layer_1" /><polygon
     id="polygon5"
     points="227.245,364.518 227.245,494.49 267.245,494.49 267.245,395.525 247.245,395.525 "
     style="fill:#00ccb3"
     transform="matrix(-1,0,0,1,494.491,0)" /><path
     inkscape:connector-curvature="0"
     id="path7"
     d="m 222.908,152.867 c -15.914,8.646 -26.715,25.509 -26.715,44.89 0,19.389 10.801,36.253 26.715,44.9 -15.915,-8.647 -26.715,-25.512 -26.715,-44.9 10e-4,-19.381 10.801,-36.243 26.715,-44.89 z"
     style="fill:#ffdaaa" /><path
     inkscape:connector-curvature="0"
     id="path9"
     d="m 247.246,248.82 0,-102.115 c 28.202,0 51.052,22.862 51.052,51.052 0,28.202 -22.85,51.063 -51.052,51.063 z"
     style="fill:#ffdaaa" /><path
     inkscape:connector-curvature="0"
     id="path11"
     d="m 227.371,150.717 c -1.527,0.646 -3.016,1.364 -4.463,2.15 1.447,-0.786 2.936,-1.504 4.463,-2.15 z"
     style="fill:#ffdaaa" /><path
     inkscape:connector-curvature="0"
     id="path13"
     d="m 232.062,149 c -1.599,0.497 -3.164,1.071 -4.691,1.717 1.527,-0.646 3.092,-1.219 4.691,-1.717 z"
     style="fill:#ffdaaa" /><path
     inkscape:connector-curvature="0"
     id="path15"
     d="m 242.025,146.968 c -2.575,0.261 -5.093,0.714 -7.54,1.344 2.447,-0.63 4.965,-1.082 7.54,-1.344 z"
     style="fill:#ffdaaa" /><path
     inkscape:connector-curvature="0"
     id="path17"
     d="m 234.485,247.213 c 2.447,0.63 4.965,1.083 7.54,1.344 -2.575,-0.262 -5.093,-0.715 -7.54,-1.344 z"
     style="fill:#ffdaaa" /><path
     inkscape:connector-curvature="0"
     id="path19"
     d="m 227.371,244.808 c -1.527,-0.646 -3.016,-1.364 -4.463,-2.15 1.447,0.785 2.936,1.504 4.463,2.15 z"
     style="fill:#ffdaaa" /><path
     inkscape:connector-curvature="0"
     id="path21"
     d="m 227.371,244.808 c 1.527,0.646 3.092,1.22 4.691,1.717 -1.599,-0.498 -3.164,-1.071 -4.691,-1.717 z"
     style="fill:#ffdaaa" /><path
     inkscape:connector-curvature="0"
     id="path23"
     d="m 247.246,248.82 c -1.763,0 -3.504,-0.089 -5.221,-0.264 -2.575,-0.261 -5.093,-0.714 -7.54,-1.344 -0.816,-0.21 -1.624,-0.439 -2.423,-0.688 -1.599,-0.497 -3.164,-1.071 -4.691,-1.717 -1.527,-0.646 -3.016,-1.364 -4.463,-2.15 -15.914,-8.647 -26.715,-25.512 -26.715,-44.9 0,-19.381 10.801,-36.243 26.715,-44.89 1.447,-0.786 2.936,-1.504 4.463,-2.15 1.527,-0.646 3.092,-1.22 4.691,-1.717 0.799,-0.249 1.607,-0.478 2.423,-0.688 2.447,-0.63 4.965,-1.082 7.54,-1.344 1.716,-0.174 3.458,-0.264 5.221,-0.264 l 0,102.116 z"
     style="fill:#ffc477" /><polygon
     id="polygon25"
     points="341.407,264.584 445.002,197.757 298.297,197.757 "
     style="fill:#00ccff"
     transform="matrix(-1,0,0,1,494.491,0)" /><polygon
     id="polygon27"
     points="180.421,291.924 227.245,364.518 247.245,395.525 247.245,248.82 "
     style="fill:#00ccff"
     transform="matrix(-1,0,0,1,494.491,0)" /><polygon
     id="polygon29"
     points="196.193,197.757 153.083,130.929 49.488,197.757 "
     style="fill:#00ccff"
     transform="matrix(-1,0,0,1,494.491,0)" /><polygon
     id="polygon31"
     points="247.245,146.705 314.069,103.601 247.245,0 "
     style="fill:#00ccff"
     transform="matrix(-1,0,0,1,494.491,0)" /><path
     inkscape:connector-curvature="0"
     id="path33"
     d="m 49.489,19.146 130.933,84.455 66.824,43.103 c -1.763,0 -3.504,0.089 -5.221,0.264 -2.575,0.261 -5.093,0.714 -7.54,1.344 -0.816,0.21 -1.624,0.439 -2.423,0.688 -1.599,0.497 -3.164,1.071 -4.691,1.717 -1.527,0.646 -3.016,1.364 -4.463,2.15 -15.915,8.646 -26.715,25.509 -26.715,44.89 l -146.705,0 0,-178.611 z"
     style="fill:#e4187a" /><path
     inkscape:connector-curvature="0"
     id="path35"
     d="m 222.908,242.657 c 1.447,0.786 2.936,1.504 4.463,2.15 1.527,0.646 3.092,1.22 4.691,1.717 0.799,0.249 1.607,0.478 2.423,0.688 2.447,0.63 4.965,1.083 7.54,1.344 1.716,0.174 3.458,0.264 5.221,0.264 l 0,146.705 -20,0 -158.611,0 127.559,-197.768 c 0,19.389 10.8,36.253 26.714,44.9 z"
     style="fill:#e4187a" /><path
     inkscape:connector-curvature="0"
     id="path37"
     d="m 247.246,248.82 c 28.202,0 51.052,-22.862 51.052,-51.063 l 146.705,0 0,178.622 L 314.07,291.924 247.246,248.82 Z"
     style="fill:#e4187a" /><path
     inkscape:connector-curvature="0"
     id="path39"
     d="M 247.246,146.705 247.246,0 425.857,0 298.298,197.757 c 0,-28.191 -22.85,-51.052 -51.052,-51.052 z"
     style="fill:#e4187a" /><g
     id="g41"
     transform="matrix(-1,0,0,1,494.491,0)" /><g
     id="g43"
     transform="matrix(-1,0,0,1,494.491,0)" /><g
     id="g45"
     transform="matrix(-1,0,0,1,494.491,0)" /><g
     id="g47"
     transform="matrix(-1,0,0,1,494.491,0)" /><g
     id="g49"
     transform="matrix(-1,0,0,1,494.491,0)" /><g
     id="g51"
     transform="matrix(-1,0,0,1,494.491,0)" /><g
     id="g53"
     transform="matrix(-1,0,0,1,494.491,0)" /><g
     id="g55"
     transform="matrix(-1,0,0,1,494.491,0)" /><g
     id="g57"
     transform="matrix(-1,0,0,1,494.491,0)" /><g
     id="g59"
     transform="matrix(-1,0,0,1,494.491,0)" /><g
     id="g61"
     transform="matrix(-1,0,0,1,494.491,0)" /><g
     id="g63"
     transform="matrix(-1,0,0,1,494.491,0)" /><g
     id="g65"
     transform="matrix(-1,0,0,1,494.491,0)" /><g
     id="g67"
     transform="matrix(-1,0,0,1,494.491,0)" /><g
     id="g69"
     transform="matrix(-1,0,0,1,494.491,0)" /></svg>